HIERARCHY
ROOT Hips
{
	OFFSET -0.001795 -0.223333 0.028219
	CHANNELS 6 Xposition Yposition Zposition Zrotation Yrotation Xrotation 
	JOINT LeftUpLeg
	{
		OFFSET 0.069520 -0.091406 -0.006815
		CHANNELS 3 Zrotation Yrotation Xrotation
		JOINT LeftLeg
		{
			OFFSET 0.034277 -0.375199 -0.004496
			CHANNELS 3 Zrotation Yrotation Xrotation
			JOINT LeftFoot
			{
				OFFSET -0.013596 -0.397961 -0.043693
				CHANNELS 3 Zrotation Yrotation Xrotation
				JOINT LeftToe
				{
					OFFSET 0.026358 -0.055791 0.119288
					CHANNELS 3 Zrotation Yrotation Xrotation
					End Site
					{
						OFFSET 0.000000 0.000000 0.000000
					}
				}
			}
		}
	}
	JOINT RightUpLeg
	{
		OFFSET -0.067670 -0.090522 -0.004320
		CHANNELS 3 Zrotation Yrotation Xrotation
		JOINT RightLeg
		{
			OFFSET -0.038290 -0.382569 -0.008850
			CHANNELS 3 Zrotation Yrotation Xrotation
			JOINT RightFoot
			{
				OFFSET 0.015774 -0.398415 -0.042312
				CHANNELS 3 Zrotation Yrotation Xrotation
				JOINT RightToe
				{
					OFFSET -0.025372 -0.048144 0.123348
					CHANNELS 3 Zrotation Yrotation Xrotation
					End Site
					{
						OFFSET 0.000000 0.000000 0.000000
					}
				}
			}
		}
	}
	JOINT Spine
	{
		OFFSET -0.002533 0.108963 -0.026696
		CHANNELS 3 Zrotation Yrotation Xrotation
		JOINT Spine1
		{
			OFFSET 0.005487 0.135180 0.001092
			CHANNELS 3 Zrotation Yrotation Xrotation
			JOINT Spine2
			{
				OFFSET 0.001457 0.052922 0.025425
				CHANNELS 3 Zrotation Yrotation Xrotation
				JOINT Neck
				{
					OFFSET -0.002778 0.213870 -0.042857
					CHANNELS 3 Zrotation Yrotation Xrotation
					JOINT Head
					{
						OFFSET 0.005152 0.064970 0.051349
						CHANNELS 3 Zrotation Yrotation Xrotation
						End Site
						{
							OFFSET 0.000000 0.000000 0.000000
						}
					}
				}
				JOINT LeftShoulder
				{
					OFFSET 0.078845 0.121749 -0.034090
					CHANNELS 3 Zrotation Yrotation Xrotation
					JOINT LeftArm
					{
						OFFSET 0.090977 0.030469 -0.008868
						CHANNELS 3 Zrotation Yrotation Xrotation
						JOINT LeftForeArm
						{
							OFFSET 0.259612 -0.012772 -0.027456
							CHANNELS 3 Zrotation Yrotation Xrotation
							JOINT LeftHand
							{
								OFFSET 0.249234 0.008986 -0.001171
								CHANNELS 3 Zrotation Yrotation Xrotation
								End Site
								{
									OFFSET 0.000000 0.000000 0.000000
								}
							}
						}
					}
				}
				JOINT RightShoulder
				{
					OFFSET -0.081759 0.118833 -0.038615
					CHANNELS 3 Zrotation Yrotation Xrotation
					JOINT RightArm
					{
						OFFSET -0.096012 0.032551 -0.009143
						CHANNELS 3 Zrotation Yrotation Xrotation
						JOINT RightForeArm
						{
							OFFSET -0.253742 -0.013329 -0.021401
							CHANNELS 3 Zrotation Yrotation Xrotation
							JOINT RightHand
							{
								OFFSET -0.255298 0.007772 -0.005559
								CHANNELS 3 Zrotation Yrotation Xrotation
								End Site
								{
									OFFSET 0.000000 0.000000 0.000000
								}
							}
						}
					}
				}
			}
		}
	}
}
MOTION
Frames: 10
Frame Time: 0.050000
1.705474 1.002693 3.260841 -25.445205 76.682894 -25.202479 -2.276877 -0.383738 -6.166643 5.865091 -2.063821 11.099210 -11.706302 2.266125 19.564007 0.000000 0.000000 0.000000 8.020298 0.857279 -12.266048 0.259938 -12.588896 30.668576 -4.129058 -2.150574 23.314302 0.000000 0.000000 0.000000 -6.543208 -2.165168 18.843182 7.726460 1.103957 -29.826356 0.903416 16.088673 27.169215 10.088834 4.547111 -22.636288 0.000000 0.000000 0.000000 -23.273458 -9.440810 -22.278894 -45.721660 6.882543 -3.764182 -32.764753 -54.408126 10.421028 0.000000 0.000000 0.000000 20.145021 3.759924 18.671265 35.131822 48.231412 9.040390 -35.354972 63.456327 -12.805975 0.000000 0.000000 0.000000 
1.702264 1.004370 3.272492 -48.956505 82.620367 -49.081012 -1.585121 -0.329229 -4.890452 5.934730 -1.483565 8.673960 -15.592306 -0.481578 21.101245 0.000000 0.000000 0.000000 7.078653 0.402399 -12.782241 -5.935410 -16.417393 38.877805 0.655217 4.141467 19.300136 0.000000 0.000000 0.000000 -7.517233 -2.149233 18.109254 6.468783 1.885420 -26.430000 -0.240963 14.654491 23.341212 8.726646 4.064625 -20.389280 0.000000 0.000000 0.000000 -22.139015 -8.758241 -22.835950 -44.026238 4.297422 -2.583015 -25.213914 -51.929017 6.416684 0.000000 0.000000 0.000000 19.239535 1.580918 17.530250 34.382300 43.639498 7.474218 -30.451225 65.886587 -10.047046 0.000000 0.000000 0.000000 
1.700587 1.002814 3.283649 -123.959327 84.634511 -124.333371 -1.942557 -0.272732 -3.205093 6.058366 -0.926377 5.661652 -18.077813 -2.686581 21.480739 0.000000 0.000000 0.000000 4.963229 -0.520396 -13.013891 -16.281864 -17.999633 46.506860 7.917121 12.967884 14.838719 0.000000 0.000000 0.000000 -7.892883 -2.129180 17.414842 4.331600 2.293727 -28.412191 0.351754 14.170317 24.843853 7.909555 4.728374 -20.233954 0.000000 0.000000 0.000000 -21.700355 -10.390246 -26.205204 -40.861687 5.789652 -1.863132 -19.559323 -49.662877 3.841963 0.000000 0.000000 0.000000 17.842479 -0.324290 17.753480 31.519174 42.195815 6.509404 -28.832467 59.397986 -8.475034 0.000000 0.000000 0.000000 
1.699934 0.999922 3.294078 -157.174392 79.050425 -156.942023 -2.074409 -0.337760 -2.656034 6.099101 -0.499334 1.879331 -20.980742 -4.280667 23.059320 0.000000 0.000000 0.000000 4.675095 -1.022239 -13.096226 -22.800808 -16.029772 45.267831 14.303955 18.097953 15.357995 0.000000 0.000000 0.000000 -5.554105 -1.666217 15.621921 1.728023 3.031950 -24.873899 -3.038951 12.234516 21.365075 8.746132 3.828132 -20.837741 0.000000 0.000000 0.000000 -19.702627 -9.152076 -26.510340 -38.409761 3.999483 -1.316866 -10.445109 -46.645178 -0.636692 0.000000 0.000000 0.000000 18.532925 -1.512114 18.808000 25.404075 42.474123 4.472181 -26.838781 48.269174 -6.779615 0.000000 0.000000 0.000000 
1.700347 0.995109 3.303915 -171.480399 69.750591 -170.359198 -2.277307 -0.403675 -3.107991 5.044070 -0.601830 0.216175 -20.479655 -6.022582 21.566082 0.000000 0.000000 0.000000 3.380837 -2.107346 -12.787347 -25.411099 -15.377104 41.424381 20.242294 19.017138 14.705499 0.000000 0.000000 0.000000 -5.985653 -1.583569 14.943057 0.677318 2.683367 -28.857523 -2.333642 10.874285 25.383029 7.952706 4.114833 -21.551912 0.000000 0.000000 0.000000 -19.078655 -8.958151 -33.306100 -35.469133 7.735767 -1.666159 -10.220440 -43.172047 -0.041032 0.000000 0.000000 0.000000 17.359416 -4.649392 19.932857 23.478758 38.599323 3.313270 -26.680743 42.312414 -5.899342 0.000000 0.000000 0.000000 
1.701509 0.992589 3.313462 -175.202239 59.712438 -173.647108 -1.680959 -0.670411 -3.379002 3.815312 -1.094336 -2.261434 -22.416053 -6.507357 23.891442 0.000000 0.000000 0.000000 3.843916 -2.283569 -11.681787 -23.208058 -15.760361 36.621039 19.389563 13.608427 12.873312 0.000000 0.000000 0.000000 -6.123180 -2.090071 16.523086 1.001542 2.718444 -29.697980 -5.205226 9.422299 23.720903 7.417002 1.913550 -21.006075 0.000000 0.000000 0.000000 -15.843499 -7.297619 -34.983811 -33.280390 8.329855 -2.421526 -8.738658 -40.172936 -1.183325 0.000000 0.000000 0.000000 19.708908 -7.743572 23.244274 21.997836 36.208050 1.435957 -25.434145 35.154949 -5.153292 0.000000 0.000000 0.000000 
1.704099 0.990684 3.322475 -177.036196 50.399063 -175.231316 -1.520613 -0.864690 -3.976829 3.063180 -1.536794 -1.599602 -22.539243 -8.930426 23.760293 0.000000 0.000000 0.000000 3.341663 -3.175596 -11.354037 -21.882625 -15.257120 32.468468 24.683683 10.353234 11.318905 0.000000 0.000000 0.000000 -6.163723 -2.250527 16.783320 -0.402532 2.175230 -30.452000 -3.595185 7.971314 24.377848 1.392692 -1.148766 -19.149693 0.000000 0.000000 0.000000 -14.303135 -9.761176 -40.560013 -30.462003 13.867438 -3.250119 -9.481287 -38.651520 -0.573343 0.000000 0.000000 0.000000 20.571118 -10.263202 26.727948 23.391298 33.868550 1.065835 -27.979963 28.754503 -4.669175 0.000000 0.000000 0.000000 
1.707422 0.989643 3.330739 -177.867234 41.534168 -175.410483 -1.280856 -1.124620 -5.006306 2.895912 -2.016022 -2.182068 -22.885837 -11.259665 24.552571 0.000000 0.000000 0.000000 3.609694 -3.396484 -10.491636 -17.583536 -13.219372 25.957049 33.843514 5.200183 8.437116 0.000000 0.000000 0.000000 -6.647366 -2.691028 17.509706 -0.868835 1.602495 -29.409239 -2.867345 7.430370 22.616411 -0.984590 -3.786904 -21.813153 0.000000 0.000000 0.000000 -10.468272 -9.212508 -46.054348 -29.835889 18.234821 -5.032848 -13.618687 -39.139126 0.171050 0.000000 0.000000 0.000000 21.878419 -12.877594 31.575136 24.245306 35.314040 1.139174 -25.264264 22.502266 -3.551950 0.000000 0.000000 0.000000 
1.711004 0.987361 3.338362 -178.922377 33.845335 -176.666606 -1.666146 -1.227029 -5.025952 2.569291 -2.446740 -1.942895 -20.575994 -14.950202 22.968508 0.000000 0.000000 0.000000 3.884248 -3.483838 -9.375197 -16.009543 -11.618773 21.892248 46.309496 -0.476341 6.389578 0.000000 0.000000 0.000000 -6.497364 -3.234079 18.546038 -1.671229 0.684811 -28.884211 -0.817896 8.768281 22.829772 -4.933711 -10.928496 -21.556678 0.000000 0.000000 0.000000 -8.540122 -11.470366 -58.142861 -25.089034 26.416637 -5.123544 -21.670745 -38.284195 3.671796 0.000000 0.000000 0.000000 22.184713 -16.298749 38.003658 23.950613 38.538771 1.678511 -23.945801 19.262392 -3.190157 0.000000 0.000000 0.000000 
1.714573 0.985580 3.345304 179.560141 25.639383 -177.203690 -3.922662 -0.929560 -6.293910 3.990094 -2.365980 -0.885061 -22.056283 -19.484378 24.297203 0.000000 0.000000 0.000000 3.625702 -4.060291 -8.885726 -14.858388 -9.895901 18.149472 61.534403 -7.902486 2.077879 0.000000 0.000000 0.000000 -7.006239 -4.576114 20.898598 -1.718272 0.127926 -30.618416 0.673337 9.183528 23.944409 -10.756719 -20.644017 -23.786100 0.000000 0.000000 0.000000 -3.599699 -11.002252 -77.722651 -18.172455 40.847412 -4.515280 -34.033983 -34.393067 6.785086 0.000000 0.000000 0.000000 19.847116 -18.883070 48.213746 24.803859 46.758951 4.438649 -23.732961 15.128655 -2.826209 0.000000 0.000000 0.000000 
